# xmcd CD database file
#
# Track frame offsets:
#	150
#	10468
#	22075
#	36143
#	55149
#	69063
#	84770
#	95440
#	106641
#	119475
#	131678
#	144543
#	160291
#	173839
#
# Disc length: 2571 seconds
#
# Revision: 0
# Processed by: cddbd v1.5.2PL0 Copyright (c) Steve Scherf et al.
# Submitted via: CDex 1.51
#
DISCID=af0a090e
DTITLE=Dieter Kropp and The Fabulous Barbecue Boys - Herzensbrecher
DYEAR=2005
DGENRE=Blues
TTITLE0=Elvis Autogramm
TTITLE1=Herzensbrecher
TTITLE2=Bouletten Bier und Blues
TTITLE3=Anspruchsvoll
TTITLE4=Strassenkoeter
TTITLE5=Sittich
TTITLE6=Enge Buxen
TTITLE7=Haerte zehn
TTITLE8=Mister Blues
TTITLE9=Mein kleines Girl
TTITLE10=Du raubst mir all meine Sinne
TTITLE11=Gut dass wir darueber gesprochen haben
TTITLE12=Hoemma hol Polizei
TTITLE13=Springinsfeld
EXTD=YEAR: 2005
EXTT0=
EXTT1=
EXTT2=
EXTT3=
EXTT4=
EXTT5=
EXTT6=
EXTT7=
EXTT8=
EXTT9=
EXTT10=
EXTT11=
EXTT12=
EXTT13=
PLAYORDER=
